<?xml version="1.0" encoding="utf-8"?>
<!-- Generator: Adobe Illustrator 16.0.0, SVG Export Plug-In . SVG Version: 6.00 Build 0)  -->
<!DOCTYPE svg PUBLIC "-//W3C//DTD SVG 1.1//EN" "http://www.w3.org/Graphics/SVG/1.1/DTD/svg11.dtd">
<svg version="1.1" id="Layer_1" xmlns="http://www.w3.org/2000/svg" xmlns:xlink="http://www.w3.org/1999/xlink" x="0px" y="0px"
	 width="461px" height="52px" viewBox="0 0 461 52" enable-background="new 0 0 461 52" xml:space="preserve">
<g>
	<path fill="none" stroke="#000000" d="M38.039,29.973l4.653-24.599h7.1l-7.669,34.57h-7.17l-5.627-23.126l-5.627,23.126h-7.17
		L8.858,5.374h7.099l4.678,24.551l5.698-24.551h6.031L38.039,29.973z"/>
	<path fill="none" stroke="#000000" d="M65.012,40.42c-3.768,0-6.834-1.156-9.201-3.467c-2.366-2.312-3.549-5.391-3.549-9.236
		v-0.665c0-2.58,0.499-4.887,1.496-6.921c0.997-2.034,2.41-3.601,4.238-4.701c1.829-1.1,3.914-1.65,6.257-1.65
		c3.514,0,6.28,1.108,8.299,3.324c2.018,2.216,3.027,5.358,3.027,9.426v2.802H59.218c0.222,1.679,0.891,3.024,2.006,4.036
		c1.117,1.014,2.529,1.52,4.239,1.52c2.644,0,4.709-0.957,6.197-2.872l3.372,3.775c-1.029,1.456-2.421,2.591-4.179,3.407
		C69.096,40.012,67.148,40.42,65.012,40.42z M64.228,19.312c-1.361,0-2.466,0.461-3.312,1.383c-0.847,0.922-1.389,2.242-1.626,3.959
		h9.545v-0.549c-0.032-1.526-0.443-2.707-1.235-3.542C66.808,19.729,65.685,19.312,64.228,19.312z"/>
	<path fill="none" stroke="#000000" d="M106.468,39.944c-0.317-0.617-0.546-1.384-0.689-2.304c-1.662,1.854-3.822,2.779-6.482,2.779
		c-2.517,0-4.603-0.729-6.256-2.185c-1.655-1.456-2.481-3.293-2.481-5.509c0-2.723,1.009-4.812,3.027-6.269
		c2.019-1.456,4.935-2.192,8.75-2.208h3.158v-1.472c0-1.187-0.305-2.137-0.914-2.849c-0.61-0.712-1.571-1.068-2.885-1.068
		c-1.156,0-2.062,0.277-2.719,0.831c-0.657,0.554-0.985,1.313-0.985,2.279H91.13c0-1.488,0.459-2.865,1.377-4.131
		c0.918-1.267,2.216-2.259,3.894-2.98c1.678-0.72,3.562-1.08,5.651-1.08c3.166,0,5.678,0.795,7.538,2.386
		c1.86,1.59,2.791,3.827,2.791,6.708v11.136c0.016,2.438,0.356,4.282,1.021,5.531v0.404H106.468z M100.793,35.172
		c1.013,0,1.947-0.226,2.802-0.676c0.854-0.452,1.488-1.058,1.899-1.817v-4.416h-2.564c-3.435,0-5.263,1.188-5.485,3.562
		l-0.023,0.403c0,0.854,0.301,1.56,0.902,2.113C98.925,34.896,99.749,35.172,100.793,35.172z"/>
	<path fill="none" stroke="#000000" d="M132.087,20.688c-0.934-0.126-1.757-0.19-2.469-0.19c-2.596,0-4.297,0.878-5.105,2.636v16.81
		h-6.862v-25.69h6.482l0.19,3.063c1.377-2.358,3.285-3.538,5.722-3.538c0.76,0,1.472,0.103,2.137,0.309L132.087,20.688z"/>
	<path fill="none" stroke="#000000" d="M147.212,40.42c-3.768,0-6.834-1.156-9.201-3.467c-2.366-2.312-3.549-5.391-3.549-9.236
		v-0.665c0-2.58,0.499-4.887,1.496-6.921c0.998-2.034,2.411-3.601,4.238-4.701c1.829-1.1,3.914-1.65,6.257-1.65
		c3.514,0,6.28,1.108,8.298,3.324c2.018,2.216,3.027,5.358,3.027,9.426v2.802h-16.359c0.222,1.679,0.891,3.024,2.006,4.036
		c1.117,1.014,2.529,1.52,4.239,1.52c2.643,0,4.709-0.957,6.197-2.872l3.372,3.775c-1.029,1.456-2.422,2.591-4.179,3.407
		C151.296,40.012,149.349,40.42,147.212,40.42z M146.429,19.312c-1.361,0-2.466,0.461-3.312,1.383
		c-0.848,0.922-1.389,2.242-1.626,3.959h9.545v-0.549c-0.032-1.526-0.443-2.707-1.235-3.542
		C149.009,19.729,147.885,19.312,146.429,19.312z"/>
	<path fill="none" stroke="#000000" d="M184.466,34.887c1.267,0,2.295-0.347,3.087-1.045c0.792-0.695,1.203-1.622,1.235-2.777h6.434
		c-0.016,1.741-0.49,3.336-1.424,4.784c-0.934,1.449-2.212,2.573-3.834,3.371c-1.623,0.801-3.416,1.2-5.378,1.2
		c-3.672,0-6.569-1.168-8.69-3.502c-2.121-2.336-3.182-5.56-3.182-9.676v-0.451c0-3.957,1.053-7.115,3.158-9.474
		c2.105-2.358,4.994-3.538,8.667-3.538c3.213,0,5.79,0.914,7.729,2.742c1.939,1.829,2.925,4.263,2.956,7.302h-6.434
		c-0.032-1.336-0.443-2.422-1.235-3.258c-0.792-0.835-1.836-1.253-3.134-1.253c-1.599,0-2.806,0.583-3.621,1.748
		c-0.816,1.166-1.223,3.056-1.223,5.671v0.713c0,2.648,0.404,4.551,1.211,5.708C181.593,34.309,182.82,34.887,184.466,34.887z"/>
	<path fill="none" stroke="#000000" d="M198.071,26.862c0-2.548,0.491-4.82,1.472-6.814c0.981-1.995,2.394-3.538,4.238-4.63
		c1.844-1.092,3.985-1.638,6.422-1.638c3.467,0,6.296,1.061,8.489,3.182c2.192,2.121,3.415,5.002,3.668,8.643l0.047,1.757
		c0,3.941-1.1,7.104-3.3,9.485c-2.2,2.383-5.152,3.574-8.856,3.574c-3.704,0-6.66-1.188-8.868-3.562
		c-2.208-2.375-3.312-5.604-3.312-9.688V26.862z M204.933,27.349c0,2.441,0.459,4.308,1.377,5.6
		c0.918,1.292,2.232,1.938,3.941,1.938c1.662,0,2.96-0.638,3.894-1.914c0.934-1.276,1.401-3.317,1.401-6.123
		c0-2.394-0.467-4.249-1.401-5.564c-0.934-1.315-2.248-1.974-3.941-1.974c-1.678,0-2.976,0.654-3.894,1.961
		C205.392,22.582,204.933,24.607,204.933,27.349z"/>
	<path fill="none" stroke="#000000" d="M233.069,14.254l0.213,2.873c1.82-2.232,4.282-3.348,7.385-3.348
		c3.309,0,5.581,1.306,6.815,3.917c1.805-2.612,4.376-3.917,7.716-3.917c2.786,0,4.859,0.812,6.221,2.434
		c1.361,1.622,2.042,4.063,2.042,7.324v16.407h-6.886V23.562c0-1.456-0.284-2.521-0.854-3.194c-0.569-0.672-1.575-1.009-3.015-1.009
		c-2.06,0-3.483,0.981-4.274,2.944l0.023,17.641h-6.861V23.585c0-1.488-0.293-2.564-0.879-3.229
		c-0.586-0.665-1.583-0.997-2.992-0.997c-1.946,0-3.355,0.807-4.226,2.422v18.164h-6.862v-25.69H233.069z"/>
	<path fill="none" stroke="#000000" d="M268.686,7.606c0-1.029,0.344-1.876,1.033-2.541c0.688-0.665,1.627-0.998,2.813-0.998
		c1.172,0,2.105,0.333,2.803,0.998c0.695,0.665,1.045,1.512,1.045,2.541c0,1.044-0.354,1.899-1.057,2.564
		c-0.705,0.665-1.636,0.998-2.791,0.998s-2.085-0.333-2.789-0.998C269.038,9.505,268.686,8.65,268.686,7.606z M275.975,39.944
		h-6.886v-25.69h6.886V39.944z"/>
	<path fill="none" stroke="#000000" d="M287.941,14.254l0.213,2.968c1.837-2.295,4.297-3.443,7.385-3.443
		c2.722,0,4.749,0.799,6.079,2.398c1.329,1.599,2.009,3.989,2.04,7.17v16.597h-6.861v-16.43c0-1.457-0.316-2.513-0.949-3.169
		c-0.633-0.657-1.687-0.986-3.157-0.986c-1.933,0-3.38,0.823-4.346,2.469v18.116h-6.861v-25.69H287.941z"/>
	<path fill="none" stroke="#000000" d="M307.862,26.909c0-3.941,0.938-7.115,2.813-9.521c1.876-2.406,4.405-3.609,7.586-3.609
		c2.817,0,5.01,0.965,6.577,2.896l0.285-2.422h6.221V39.09c0,2.248-0.51,4.203-1.532,5.864c-1.02,1.663-2.457,2.929-4.309,3.799
		c-1.853,0.87-4.021,1.307-6.506,1.307c-1.884,0-3.72-0.376-5.509-1.128c-1.788-0.752-3.143-1.722-4.061-2.908l3.039-4.18
		c1.71,1.916,3.783,2.874,6.223,2.874c1.818,0,3.236-0.487,4.249-1.461s1.52-2.355,1.52-4.143v-1.378
		c-1.583,1.789-3.665,2.684-6.244,2.684c-3.088,0-5.584-1.207-7.492-3.622c-1.906-2.413-2.859-5.615-2.859-9.604V26.909z
		 M314.723,27.42c0,2.331,0.467,4.158,1.402,5.482c0.933,1.323,2.215,1.984,3.845,1.984c2.09,0,3.586-0.784,4.488-2.354v-10.82
		c-0.918-1.57-2.398-2.354-4.439-2.354c-1.647,0-2.94,0.674-3.883,2.021C315.194,22.728,314.723,24.741,314.723,27.42z"/>
	<path fill="none" stroke="#000000" d="M362.639,32.846c0-0.839-0.416-1.5-1.246-1.983c-0.832-0.482-2.165-0.914-4.002-1.294
		c-6.109-1.282-9.164-3.878-9.164-7.788c0-2.279,0.945-4.183,2.837-5.71c1.892-1.528,4.365-2.292,7.42-2.292
		c3.261,0,5.869,0.768,7.823,2.303c1.955,1.536,2.932,3.53,2.932,5.983h-6.861c0-0.981-0.316-1.792-0.949-2.433
		c-0.634-0.642-1.623-0.962-2.968-0.962c-1.156,0-2.05,0.261-2.684,0.784c-0.633,0.522-0.949,1.187-0.949,1.994
		c0,0.76,0.36,1.374,1.08,1.84c0.721,0.467,1.935,0.871,3.644,1.21c1.71,0.341,3.15,0.725,4.323,1.152
		c3.623,1.33,5.437,3.633,5.437,6.91c0,2.343-1.006,4.237-3.017,5.687c-2.01,1.448-4.604,2.173-7.787,2.173
		c-2.153,0-4.063-0.384-5.734-1.152c-1.669-0.767-2.979-1.82-3.929-3.157c-0.95-1.338-1.425-2.782-1.425-4.334h6.506
		c0.063,1.22,0.514,2.153,1.353,2.802c0.839,0.649,1.963,0.974,3.373,0.974c1.313,0,2.306-0.249,2.979-0.748
		C362.302,34.306,362.639,33.652,362.639,32.846z"/>
	<path fill="none" stroke="#000000" d="M372.657,26.862c0-2.548,0.491-4.82,1.473-6.814s2.394-3.538,4.238-4.63
		c1.844-1.092,3.984-1.638,6.423-1.638c3.466,0,6.295,1.061,8.488,3.182c2.191,2.121,3.414,5.002,3.669,8.643l0.046,1.757
		c0,3.941-1.1,7.104-3.3,9.485c-2.2,2.383-5.152,3.574-8.856,3.574s-6.659-1.188-8.868-3.562c-2.208-2.375-3.313-5.604-3.313-9.688
		V26.862z M379.519,27.349c0,2.441,0.46,4.308,1.379,5.6c0.917,1.292,2.23,1.938,3.94,1.938c1.663,0,2.96-0.638,3.894-1.914
		s1.401-3.317,1.401-6.123c0-2.394-0.468-4.249-1.401-5.564s-2.248-1.974-3.94-1.974c-1.679,0-2.977,0.654-3.894,1.961
		C379.979,22.582,379.519,24.607,379.519,27.349z"/>
	<path fill="none" stroke="#000000" d="M400.154,26.862c0-2.548,0.49-4.82,1.472-6.814s2.394-3.538,4.238-4.63
		c1.844-1.092,3.984-1.638,6.424-1.638c3.465,0,6.295,1.061,8.487,3.182s3.414,5.002,3.669,8.643l0.046,1.757
		c0,3.941-1.099,7.104-3.299,9.485c-2.201,2.383-5.153,3.574-8.857,3.574s-6.659-1.188-8.868-3.562
		c-2.207-2.375-3.312-5.604-3.312-9.688V26.862z M407.016,27.349c0,2.441,0.459,4.308,1.378,5.6c0.917,1.292,2.23,1.938,3.94,1.938
		c1.663,0,2.96-0.638,3.894-1.914c0.935-1.276,1.401-3.317,1.401-6.123c0-2.394-0.467-4.249-1.401-5.564
		c-0.934-1.315-2.247-1.974-3.939-1.974c-1.68,0-2.978,0.654-3.895,1.961C407.475,22.582,407.016,24.607,407.016,27.349z"/>
	<path fill="none" stroke="#000000" d="M435.033,14.254l0.213,2.968c1.836-2.295,4.297-3.443,7.385-3.443
		c2.722,0,4.749,0.799,6.078,2.398c1.33,1.599,2.01,3.989,2.041,7.17v16.597h-6.861v-16.43c0-1.457-0.316-2.513-0.95-3.169
		c-0.633-0.657-1.686-0.986-3.157-0.986c-1.932,0-3.38,0.823-4.346,2.469v18.116h-6.861v-25.69H435.033z"/>
</g>
</svg>
