<?xml version="1.0" encoding="utf-8"?>
<!-- Generator: Adobe Illustrator 24.0.1, SVG Export Plug-In . SVG Version: 6.00 Build 0)  -->
<svg version="1.1" id="Layer_1" xmlns="http://www.w3.org/2000/svg" xmlns:xlink="http://www.w3.org/1999/xlink" x="0px" y="0px"
	 viewBox="0 0 129.2 116.5" style="enable-background:new 0 0 129.2 116.5;" xml:space="preserve">
<style type="text/css">
	.st0{fill:#0776BC;}
	.st1{fill:#070909;}
</style>
<g>
	<path class="st0" d="M46,99.2c-0.5-1.4-1.3-2.7-2-4c-0.7-1.4-1.4-2.7-2.1-4.1c-0.8-1.3-1.6-2.5-2.3-3.8c-0.8-1.2-1.5-2.4-2.2-3.6
		c-0.7-1.2-1.5-2.1-2.2-3.1c-2.9-3.8-4.8-6.3-4.8-6.3s2.8,1.5,7,3.8c1,0.6,2.3,1.2,3.4,2c1.2,0.8,2.4,1.6,3.6,2.5
		c1.3,0.9,2.6,1.8,3.9,2.7c1.3,1,2.5,2.1,3.8,3.1c1.1,1,2.4,1.9,3.4,2.9V72.8c0-5.9-3.6-14.1-7.9-18.1L17.3,24.8
		c-4.3-4-7.9-2.5-7.9,3.4v47.7c0,5.9,3.6,14.1,7.9,18.1l1.8,1.7c4.4,4,11,7.3,17,7.3h8.8c0.9,0,1.8-0.1,2.6-0.4
		C47,101.6,46.5,100.4,46,99.2z"/>
	<path class="st1" d="M108.4,8.9L69.6,45c-4.3,4-7.9,12.2-7.9,18.1v28.1c0.6-0.7,1.2-1.5,1.9-2.3c1.7-1.8,3.4-3.7,5.1-5.5
		c1.7-1.9,3.5-3.8,5.4-5.6c1.9-1.8,3.7-3.6,5.6-5.3c1.8-1.8,3.7-3.4,5.6-4.9c1.9-1.5,3.7-3,5.4-4.4c0.8-0.7,1.7-1.4,2.5-2
		c0.8-0.6,1.7-1.2,2.5-1.7c6.3-4.3,10.5-7.1,10.5-7.1s-3.4,3.7-8.6,9.2c-0.6,0.7-1.3,1.4-2,2.2c-0.6,0.8-1.3,1.6-1.9,2.5
		c-1.3,1.7-2.7,3.5-4.1,5.3c-1.4,1.8-2.9,3.7-4.2,5.8c-1.3,2-2.7,4.1-4.1,6.2c-1.4,2-2.6,4.2-3.8,6.3C76,91.9,74.8,94,73.6,96
		c-1.1,2.1-2.1,4-3,5.9c-0.2,0.3-0.3,0.6-0.5,0.9c0.7,0.2,1.5,0.3,2.3,0.3h13c5.9,0,14.3-3.3,18.7-7.3l4.2-3.9
		c4.3-4,7.9-12.2,7.9-18.1V12.4C116.3,6.4,112.7,4.9,108.4,8.9z"/>
</g>
</svg>
