<?xml version="1.0" encoding="utf-8"?>
<!-- Generator: Adobe Illustrator 24.0.1, SVG Export Plug-In . SVG Version: 6.00 Build 0)  -->
<svg version="1.1" id="Layer_1" xmlns="http://www.w3.org/2000/svg" xmlns:xlink="http://www.w3.org/1999/xlink" x="0px" y="0px"
	 viewBox="0 0 750 500" style="enable-background:new 0 0 750 500;" xml:space="preserve">
<style type="text/css">
	.st0{fill:none;}
	.st1{fill:none;stroke:#DED8D5;stroke-width:1.9678;stroke-miterlimit:10;}
	.st2{fill:#FFB1A5;}
	.st3{fill:#EAD254;}
	.st4{fill:#00857B;}
	.st5{fill:#EDEDED;}
	.st6{fill:#C98BD2;}
	.st7{fill:none;stroke:#FFFFFF;stroke-width:1.6466;stroke-linecap:round;stroke-linejoin:round;stroke-miterlimit:10;}
	.st8{fill:#FFFFFF;}
	.st9{fill:#56DFED;}
	.st10{fill:none;stroke:#FFFFFF;stroke-width:1.1803;stroke-miterlimit:10;}
	.st11{clip-path:url(#SVGID_2_);}
	.st12{fill:#8E716C;}
	.st13{fill:none;stroke:#282828;stroke-width:1.2333;stroke-linecap:round;stroke-linejoin:round;stroke-miterlimit:10;}
	.st14{fill:#F3978E;}
	.st15{fill:#372F5F;}
	.st16{fill:#261B43;}
	.st17{fill:#E6E6E6;}
	.st18{fill:#282828;}
	.st19{fill:none;stroke:#282828;stroke-width:0.9928;stroke-linecap:round;stroke-linejoin:round;stroke-miterlimit:10;}
	.st20{fill:none;stroke:#282828;stroke-width:1.2316;stroke-linecap:round;stroke-linejoin:round;stroke-miterlimit:10;}
	.st21{fill:none;stroke:#C98BD2;stroke-width:1.3423;stroke-miterlimit:9.9999;}
	.st22{fill:none;stroke:#C98BD2;stroke-width:1.3423;stroke-miterlimit:10;}
	.st23{fill:none;stroke:#282828;stroke-width:1.2298;stroke-linecap:round;stroke-linejoin:round;stroke-miterlimit:10;}
	.st24{fill:#005683;}
	.st25{fill:none;stroke:#282828;stroke-width:1.3968;stroke-linecap:round;stroke-linejoin:round;stroke-miterlimit:10;}
	.st26{fill:none;stroke:#282828;stroke-width:1.5317;stroke-linecap:round;stroke-linejoin:round;stroke-miterlimit:10;}
	.st27{fill:none;stroke:#FFFFFF;stroke-width:1.9514;stroke-miterlimit:10;}
</style>
<g id="BACKGROUND">
	<rect x="0.2" class="st0" width="750" height="500"/>
</g>
<g id="OBJECTS">
	<g>
		<g>
			<g>
				<line class="st1" x1="132.9" y1="155.3" x2="632.2" y2="155.3"/>
				<path class="st1" d="M625.7,431.6H139.4c-3.6,0-6.5-2.9-6.5-6.5V129.1c0-3.6,2.9-6.5,6.5-6.5h486.3c3.6,0,6.5,2.9,6.5,6.5v295.9
					C632.2,428.7,629.3,431.6,625.7,431.6z"/>
				<g>
					<path class="st2" d="M165.8,139.3c0,2.5-2,4.6-4.6,4.6c-2.5,0-4.6-2.1-4.6-4.6s2-4.6,4.6-4.6
						C163.7,134.8,165.8,136.8,165.8,139.3z"/>
					<path class="st3" d="M183.5,139.3c0,2.5-2.1,4.6-4.6,4.6s-4.6-2.1-4.6-4.6s2.1-4.6,4.6-4.6
						C181.5,134.8,183.5,136.8,183.5,139.3z"/>
					<path class="st4" d="M201.3,139.3c0,2.5-2.1,4.6-4.6,4.6s-4.6-2.1-4.6-4.6s2-4.6,4.6-4.6C199.2,134.8,201.3,136.8,201.3,139.3z
						"/>
				</g>
			</g>
		</g>
		<g>
			<g>
				<g>
					<g>
						<path class="st5" d="M697.1,265.6H579.7c-3.3,0-6-2.7-6-6V151.1c0-3.3,2.7-6,6-6h117.4c3.3,0,6,2.7,6,6v108.5
							C703.1,262.9,700.4,265.6,697.1,265.6z"/>
						<path class="st1" d="M697.1,265.6H579.7c-3.3,0-6-2.7-6-6V151.1c0-3.3,2.7-6,6-6h117.4c3.3,0,6,2.7,6,6v108.5
							C703.1,262.9,700.4,265.6,697.1,265.6z"/>
					</g>
				</g>
			</g>
			<g>
				<g>
					<g>
						<g>
							<path class="st6" d="M608.1,234.3h61c3.3,0,6-2.7,6-6v-50c0-3.3-2.7-6-6-6h-61c-3.3,0-6,2.7-6,6v50
								C602.1,231.6,604.8,234.3,608.1,234.3z"/>
						</g>
					</g>
				</g>
				<g>
					<polygon class="st7" points="655.3,213.6 626.7,213.6 621.6,213.6 621.6,190.9 655.3,190.9 655.3,196.6 					"/>
					<polyline class="st7" points="621.6,190.9 638.4,204.2 655.3,190.9 					"/>
				</g>
			</g>
		</g>
		<g>
			<g>
				<g>
					<g>
						<path class="st5" d="M180.6,356.5H68.7c-3.2,0-5.7-2.6-5.7-5.7v-97.6c0-3.2,2.6-5.7,5.7-5.7h111.9c3.2,0,5.7,2.6,5.7,5.7v97.6
							C186.3,353.9,183.8,356.5,180.6,356.5z"/>
						<path class="st1" d="M180.6,356.5H68.7c-3.2,0-5.7-2.6-5.7-5.7v-97.6c0-3.2,2.6-5.7,5.7-5.7h111.9c3.2,0,5.7,2.6,5.7,5.7v97.6
							C186.3,353.9,183.8,356.5,180.6,356.5z"/>
					</g>
				</g>
			</g>
			<g>
				<path class="st2" d="M153.4,335.5h-58c-3.7,0-6.6-3-6.6-6.6v-56.1c0-3.7,3-6.6,6.6-6.6h58.1c3.7,0,6.6,3,6.6,6.6v56.1
					C160,332.5,157.1,335.5,153.4,335.5z"/>
				<g>
					<path class="st8" d="M110.6,287.2c-7.8,7.8-7.8,20.7,0,28.5c7.8,7.8,20.7,7.8,28.5,0c7.8-7.8,7.8-20.7,0-28.5
						C131.2,279.4,118.4,279.4,110.6,287.2z M139,290.1h-6.4c-0.6-2-1.5-4-2.5-6.1C133.7,285.1,136.8,287.3,139,290.1z M117.4,300.3
						c0-2.6,0.3-5.2,1-7.8h12.9c0.6,2.6,0.9,5.2,1,7.8H117.4z M132.1,302.7c-0.2,2.6-0.6,5.2-1.4,7.8h-11.9
						c-0.7-2.6-1.2-5.2-1.4-7.8H132.1z M124.8,283.3c1,0,1.9,0.1,2.8,0.2c1.2,2.2,2.2,4.4,2.9,6.6H119c0.7-2.2,1.7-4.4,2.9-6.6
						C122.9,283.4,123.8,283.3,124.8,283.3z M119.5,284.1c-1,2-1.8,4-2.5,6.1h-6.4C112.9,287.3,116,285.1,119.5,284.1z M109,292.5
						h7.4c-0.7,2.6-1,5.2-1,7.8h-8.7C106.8,297.5,107.7,294.8,109,292.5z M109,310.5c-1.3-2.3-2.2-5-2.3-7.8h8.7
						c0.1,2.6,0.5,5.2,1.2,7.8H109z M110.6,312.8h6.7c0.7,2,1.5,4.1,2.5,6.1C116.1,317.9,112.9,315.7,110.6,312.8z M124.8,319.7
						c-0.8,0-1.6,0-2.4-0.1c-1.1-2.2-2.1-4.5-2.8-6.7H130c-0.8,2.2-1.7,4.5-2.8,6.7C126.4,319.6,125.6,319.7,124.8,319.7z
						 M129.9,319c1-2,1.8-4.1,2.5-6.1h6.7C136.7,315.7,133.5,317.9,129.9,319z M140.6,310.5H133c0.7-2.6,1.1-5.2,1.2-7.8h8.7
						C142.8,305.5,142,308.1,140.6,310.5z M143,300.3h-8.7c-0.1-2.6-0.4-5.2-1-7.8h7.4C142,294.8,142.8,297.5,143,300.3z"/>
				</g>
			</g>
		</g>
		<g>
			<path class="st6" d="M174,94.1H72.6c-2.1,0-3.8-1.7-3.8-3.8l0,0c0-2.1,1.7-3.8,3.8-3.8H174c2.1,0,3.8,1.7,3.8,3.8l0,0
				C177.8,92.4,176.1,94.1,174,94.1z"/>
			<path class="st9" d="M701.2,341.8H652c-2.1,0-3.8-1.7-3.8-3.8l0,0c0-2.1,1.7-3.8,3.8-3.8h49.2c2.1,0,3.8,1.7,3.8,3.8l0,0
				C705,340.1,703.3,341.8,701.2,341.8z"/>
			<path class="st6" d="M666.8,385.7h-6c-1.6,0-2.9-1.3-2.9-2.9v-5.6c0-1.6,1.3-2.9,2.9-2.9h6c1.6,0,2.9,1.3,2.9,2.9v5.6
				C669.6,384.4,668.3,385.7,666.8,385.7z"/>
			<path class="st2" d="M96.7,412h-6c-1.6,0-2.9-1.3-2.9-2.9v-5.7c0-1.6,1.3-2.9,2.9-2.9h6c1.6,0,2.9,1.3,2.9,2.9v5.7
				C99.6,410.7,98.3,412,96.7,412z"/>
			<g>
				<g>
					<path class="st2" d="M557,90.2H456.9c-1.7,0-3-1.3-3-3V62.7c0-1.7,1.4-3,3-3H557c1.7,0,3,1.3,3,3v24.4
						C560,88.8,558.7,90.2,557,90.2z"/>
					<g>
						<line class="st10" x1="468.3" y1="70.6" x2="539.5" y2="70.6"/>
						<line class="st10" x1="468.3" y1="77.9" x2="497.3" y2="77.9"/>
					</g>
				</g>
				<polygon class="st2" points="465.4,86.7 465.4,98.6 480.4,86.7 				"/>
			</g>
			<g>
				<g>
					<g>
						<g>
							<g>
								<g>
									<path class="st9" d="M311.1,92h-48.4c-4.7,0-8.5-3.8-8.5-8.5v-45c0-3.6,2.9-6.5,6.5-6.5h50.5c3.6,0,6.5,2.9,6.5,6.5v47.1
										C317.6,89.1,314.7,92,311.1,92z"/>
								</g>
							</g>
						</g>
					</g>
				</g>
				<g>
					<path class="st8" d="M300.6,66.4l-3.6-3.6c-0.6-0.7-1.5-1.1-2.3-1.1s-1.7,0.4-2.3,1l-2.1,2.1c-0.1-0.1-0.3-0.1-0.4-0.2
						c-0.3-0.1-0.5-0.2-0.6-0.3c-1.9-1.2-3.7-2.8-5.4-4.9c-0.8-1-1.4-1.9-1.7-2.6c0.5-0.5,1-1,1.4-1.4c0.2-0.2,0.4-0.4,0.6-0.6
						c0.7-0.7,1.1-1.5,1.1-2.4s-0.4-1.7-1.1-2.4l-1.8-1.8c-0.2-0.2-0.4-0.4-0.6-0.6c-0.4-0.4-0.8-0.8-1.2-1.2c-0.6-0.6-1.5-1-2.3-1
						s-1.6,0.3-2.3,1l-2.3,2.3c-0.8,0.8-1.4,1.9-1.5,3.2c-0.1,1.9,0.4,3.7,0.8,4.9c1,3,2.6,5.6,5,8.4c2.9,3.4,6.3,6.1,10.3,8.1
						c1.5,0.7,3.5,1.6,5.8,1.7c0.1,0,0.3,0,0.5,0c1.5,0,2.8-0.6,3.9-1.7c0,0,0,0,0.1-0.1c0.3-0.4,0.7-0.8,1.2-1.2
						c0.3-0.3,0.6-0.6,0.8-0.8C302,69.7,302,67.8,300.6,66.4z M299.1,69.8c-0.3,0.3-0.5,0.5-0.8,0.8c-0.5,0.4-0.8,0.8-1.3,1.3
						c-0.6,0.7-1.4,1-2.3,1c-0.1,0-0.2,0-0.3,0c-1.9-0.1-3.7-0.9-5-1.6c-3.7-1.8-6.9-4.3-9.6-7.5c-2.2-2.6-3.7-5.2-4.7-7.8
						c-0.6-1.5-0.9-2.8-0.8-4c0.1-0.7,0.3-1.3,0.9-1.9l2.2-2.2c0.2-0.2,0.5-0.5,0.9-0.5c0.4,0,0.6,0.2,0.9,0.5
						c0.4,0.4,0.8,0.8,1.2,1.2c0.2,0.2,0.4,0.5,0.6,0.7l1.8,1.8c0.2,0.2,0.5,0.6,0.5,0.9c0,0.4-0.3,0.7-0.5,0.9
						c-0.2,0.2-0.4,0.4-0.6,0.6c-0.6,0.6-1.1,1.1-1.6,1.6c0,0,0,0-0.1,0.1c-0.6,0.6-0.5,1.2-0.4,1.6v0.1c0.5,1.2,1.2,2.2,2.1,3.5
						c1.8,2.3,3.7,4,5.9,5.4c0.3,0.2,0.6,0.3,0.8,0.4s0.5,0.2,0.6,0.3l0.1,0.1c0.6,0.3,1.3,0.2,1.8-0.3l2.3-2.3
						c0.2-0.2,0.5-0.4,0.9-0.4c0.3,0,0.6,0.3,0.8,0.4l3.6,3.6C299.7,68.5,299.7,69.1,299.1,69.8z"/>
				</g>
			</g>
		</g>
		<g>
			<g>
				<defs>
					<rect id="SVGID_1_" x="178.9" y="98.1" width="459.3" height="332.7"/>
				</defs>
				<clipPath id="SVGID_2_">
					<use xlink:href="#SVGID_1_"  style="overflow:visible;"/>
				</clipPath>
				<g class="st11">
					<g>
						<g>
							<path class="st12" d="M521.8,319.3l-36.5-4.9l0.3,3.6l-31.2,4.2c0,0-20.1,50.5-2.4,161.5h25.4l9.1-112.5h3.2l8.9,112.5H524
								C541.8,372.7,521.8,319.3,521.8,319.3z"/>
							<line class="st13" x1="474.9" y1="371.1" x2="501.4" y2="371.1"/>
						</g>
						<g>
							<g>
								<g>
									<g>
										<path class="st2" d="M543.2,266c-3.1-5-20.7-4.8-21.6-4.9c-4.7-0.6,3,37.2,12.9,70.2c1.9,6.3,8.8,9.6,14.9,7
											c0.1,0,0.1-0.1,0.2-0.1c4.8-2,7.5-7.1,6.6-12.3C551.5,301.1,546.8,271.8,543.2,266z"/>
									</g>
									<polygon class="st14" points="547.3,279.7 524.9,288.3 522.8,277.7 546,271.9 									"/>
									<path class="st14" d="M551.6,300.9c0,0-10.6,14.3-10.1,13.6c0.5-0.7,8.3-23,8.3-23L551.6,300.9z"/>
								</g>
								<g>
									<path class="st2" d="M566.7,281.8l-30.4,39.4c-4,5.2-2.7,12.7,2.8,16.2l0,0c5.5,3.5,12.8,1.7,15.9-4l25.3-46.7L566.7,281.8
										z"/>
									<g>
										<path class="st2" d="M574.6,291.9c-6.6-2.1-10.2-9.2-8.1-15.8c2.1-6.6,9.2-10.2,15.8-8.1c6.6,2.1,10.2,9.2,8.1,15.8
											C588.3,290.4,581.2,294,574.6,291.9z"/>
										<path class="st2" d="M587.6,272.4c0,0,3.4-3.6-2.7-6.1c-6.1-2.5-13.6-1.9-18.4,9.8L587.6,272.4z"/>
									</g>
									<g>
										<path class="st15" d="M593.9,247.5l12.7,5.5c0.7,0.3,1,1.1,0.6,1.9l-16.8,31.3c-0.4,0.7-1.3,1.1-2,0.8l-12.7-5.5
											c-0.7-0.3-1-1.1-0.6-1.9l16.8-31.3C592.3,247.5,593.2,247.2,593.9,247.5z"/>
										<path class="st16" d="M592.7,246.9l12.7,5.5c0.7,0.3,1,1.1,0.6,1.9l-16.8,31.3c-0.4,0.7-1.3,1.1-2,0.8l-12.7-5.5
											c-0.7-0.3-1-1.1-0.6-1.9l16.8-31.3C591.1,247,592,246.6,592.7,246.9z"/>
										<polygon class="st17" points="591.3,250.1 602.5,255 588.8,280.5 577.6,275.6 										"/>
										<polygon class="st8" points="602.5,255 577.6,275.6 591.3,250.1 										"/>
									</g>
									<path class="st2" d="M581.3,265.3c0,0,2.8,0.5,5.4,2c1.1,0.6,1.7,1.9,1.4,3.2l0,0c-0.3,1.1-1.3,2-2.4,2.1l-6.6,0.8
										c0,0-3.5,6-8,6.6l4.1-10.5L581.3,265.3z"/>
								</g>
							</g>
							<g>
								<g>
									<path class="st9" d="M496.8,216.4c-0.7,0,47,6.6,54.8,60.9l-24.7,3.8l-5,41h-69l-13.7-75.8c0,0,15.3-21.9,43.7-30
										L496.8,216.4L496.8,216.4z"/>
									<line class="st13" x1="526.8" y1="281.1" x2="529" y2="257.4"/>
								</g>
							</g>
						</g>
						<g>
							<path class="st2" d="M501.3,217.2v-18.9h-22.1v19.1c-1.1,0.3-3,1-5.9,2.4l17.3,10.3l17.6-10.3
								C508.1,219.8,505.3,218.2,501.3,217.2z"/>
							<path class="st18" d="M479,200.6c0,0,4,10.6,14.6,9.6c9.8-0.8,8.2-15.5,8.2-15.5L479,200.6z"/>
							<g>
								<path class="st14" d="M469.3,186.6c-3.5,3.1-11.2-8.8-7.9-12.1s5.9,1.9,5.9,1.9l1.5,3.6l1.1,4.8l0.3,1.3L469.3,186.6z"/>
								<g>
									<g>
										<path class="st19" d="M463.1,178.7c0,0,2.6-1.2,5,2.6"/>
									</g>
								</g>
							</g>
							<g>
								<path class="st14" d="M510.3,186.2c3.2,3.4,11.9-7.8,8.9-11.4c-3.1-3.6-6,1.4-6,1.4l-1.8,3.4l-1.5,4.7l-0.4,1.2L510.3,186.2
									z"/>
								<g>
									<g>
										<path class="st19" d="M517.2,178.8c0,0-2.5-1.4-5.2,2.2"/>
									</g>
								</g>
							</g>
							<g>
								<path class="st18" d="M463.2,163.1c0,15.8,12,23.3,26.9,23.3s26.9-7.5,26.9-23.3s-12-26.5-26.9-26.5
									S463.2,147.3,463.2,163.1z"/>
							</g>
							<path class="st2" d="M466.9,164.1c0,9.7,1.4,18.1,2.7,24c1.3,5.8,5.1,9.9,10.4,13.1l1,0.6c5.6,3.5,12.9,3.5,18.6,0.2l0,0
								c5.8-3.4,9.8-7.8,11-14c2.3-11.4,2.5-23.9,2.5-23.9s2.1-24.5-22.8-24C465.4,140.6,466.9,164.1,466.9,164.1z"/>
							<g>
								<path class="st20" d="M488.5,178.1v3.4c0,0.2,0,0.4,0.1,0.6c0.3,0.7,1.1,1,1.8,0.8l1.5-0.4"/>
								<path class="st18" d="M484.6,165l-12.4,2.9c0,0,0.6-3.2,5.6-4.3C482.9,162.4,484.6,165,484.6,165z"/>
								<path class="st18" d="M495.6,165l12,2.9c0,0-0.5-3.2-5.5-4.3C497.2,162.4,495.6,165,495.6,165z"/>
								<ellipse class="st18" cx="479.8" cy="174.1" rx="2.1" ry="2.1"/>
								<path class="st18" d="M501.8,174.1c0,1.1-0.9,2.1-2.1,2.1c-1.2,0-2.1-0.9-2.1-2.1s0.9-2.1,2.1-2.1
									C500.8,172,501.8,172.9,501.8,174.1z"/>
								<path class="st8" d="M481.9,186.8h16.1C498.1,186.8,490.9,195.6,481.9,186.8z"/>
								<g>
									<ellipse class="st21" cx="478.9" cy="174.9" rx="8.9" ry="8.9"/>
									<ellipse class="st21" cx="500.8" cy="174.9" rx="8.9" ry="8.9"/>
									<path class="st22" d="M487.9,174.9c0,0,2.1-2,4.1,0"/>
									<line class="st22" x1="470.1" y1="174.9" x2="467.2" y2="174.8"/>
									<line class="st22" x1="509.7" y1="174.9" x2="512.6" y2="174.8"/>
								</g>
							</g>
							<path class="st18" d="M512.9,172.3c0,0-10-13.5-7.7-27.2c0,0,7.4,3.7,9.4,13.4C516.5,168.1,512.9,172.3,512.9,172.3z"/>
							<path class="st18" d="M466.9,173.2c0,0,11.6-15.3,9.3-29c0,0-8,4.6-10,14.3C464.3,168.1,466.9,173.2,466.9,173.2z"/>
							<path class="st18" d="M512,150.5c0,0-12.8,14-47.9,11.6c0,0,5.4-20.6,22.4-22.8C486.5,139.3,506.1,137,512,150.5z"/>
							
								<ellipse transform="matrix(0.1594 -0.9872 0.9872 0.1594 297.3263 617.3262)" class="st18" cx="511.2" cy="134.1" rx="16.8" ry="16.8"/>
						</g>
					</g>
					<g>
						<path class="st18" d="M306.6,319.2l-31.2-4.2l0.3-3.6l-36.5,4.9c0,0-19.9,53.4-2.2,164.4h25.4l8.9-112.6h3.2l9.1,112.5H309
							C326.7,369.7,306.6,319.2,306.6,319.2z"/>
						<g>
							<path class="st18" d="M304.1,167.4c-4.2-5-7.6-10.8-10.5-18.9c-3.1-8.7-13.2-5.2-13.2-5.2s-8.4-10.8-21.1-7.1
								c-12.7,3.8-17.1,12.8-17.3,23.5s-8.7,12.4-15.2,24.8c-11.5,21.9,7.8,40.3,43,35.2l0.1-0.3c3.5,1.1,7.7,1.5,12.9,1.2
								C324.9,218.1,320.9,187.1,304.1,167.4z"/>
							<g>
								<path class="st14" d="M290.3,183.6c3.5,3.1,11.2-8.8,7.9-12.1s-5.9,1.9-5.9,1.9l-1.5,3.6l-1.1,4.8l-0.3,1.3L290.3,183.6z"/>
								<g>
									<g>
										<path class="st19" d="M296.6,175.7c0,0-2.6-1.2-5,2.6"/>
									</g>
								</g>
							</g>
							<g>
								<path class="st14" d="M249.3,183.3c-3.2,3.4-11.9-7.8-8.9-11.4c3.1-3.6,6.1,1.4,6.1,1.4l1.8,3.4l1.5,4.7l0.4,1.2
									L249.3,183.3z"/>
								<g>
									<g>
										<path class="st19" d="M242.4,175.9c0,0,2.5-1.4,5.2,2.2"/>
									</g>
								</g>
							</g>
							<g>
								<path class="st18" d="M296.4,160.1c0,15.8-12,23.3-26.9,23.3s-26.9-7.5-26.9-23.3s12-26.5,26.9-26.5
									C284.3,133.6,296.4,144.3,296.4,160.1z"/>
							</g>
							<rect x="258.3" y="195.3" class="st2" width="22.1" height="28.6"/>
							<path class="st18" d="M255.1,193.6c0,0,6.2,12.3,13.7,14.2c2,0.5,4.2,0.3,6.1-0.4c2.8-1,6.5-5.3,7.1-10l0.3-2.7
								C282.3,194.8,268.8,202.1,255.1,193.6z"/>
							<path class="st2" d="M292.7,161.2c0,9.7-1.4,18.1-2.7,24c-1.3,5.8-5.1,9.9-10.4,13.1l-1,0.6c-5.6,3.5-12.9,3.5-18.6,0.2l0,0
								c-5.8-3.4-9.8-7.8-11.1-14c-2.3-11.4-2.5-23.9-2.5-23.9s-2.1-24.5,22.8-24C294.2,137.7,292.7,161.2,292.7,161.2z"/>
							<g>
								<path class="st23" d="M267.8,176.5v2c0,0.2,0,0.4,0.1,0.6c0.3,0.7,1.1,1,1.8,0.8l1.6-0.4"/>
								<path class="st18" d="M273,163.2l13.3,3.1c0,0-0.6-3.4-6-4.7S273,163.2,273,163.2z"/>
								<path class="st18" d="M266,163.2l-13.5,3.1c0,0,0.6-3.4,6.1-4.7C264.2,160.5,266,163.2,266,163.2z"/>
								<path class="st18" d="M261.2,171.5c0,1.1-0.9,2.1-2.1,2.1c-1.2,0-2.1-0.9-2.1-2.1c0-1.1,0.9-2.1,2.1-2.1
									C260.3,169.4,261.2,170.3,261.2,171.5z"/>
								<path class="st18" d="M281.1,171.5c0,1.1-0.9,2.1-2.1,2.1s-2.1-0.9-2.1-2.1c0-1.1,0.9-2.1,2.1-2.1S281.1,170.3,281.1,171.5z
									"/>
								<path class="st8" d="M259.8,183.4h18.4c0,0-1.3,5.1-9.6,5.1C262.2,188.4,259.8,183.4,259.8,183.4z"/>
							</g>
							<path class="st18" d="M246.7,169.3c0,0,10-13.5,7.7-27.2c0,0-7.4,3.7-9.4,13.4C243.1,165.1,246.7,169.3,246.7,169.3z"/>
							<path class="st18" d="M292.7,168.9c0,0-11.6-14-9.3-27.6c0,0,8,4.6,10,14.3C295.4,165.1,292.7,168.9,292.7,168.9z"/>
							<path class="st18" d="M247.6,147.5c0,0,11.5,15.4,46.6,13c0,0-4-22-21-24.2C273.1,136.3,253.5,134,247.6,147.5z"/>
						</g>
						<g>
							<g>
								<g>
									<path class="st2" d="M215.6,387c-0.5,0.8,29.2-129.3,20.4-127.3c-0.8,0.2-16.3,1.6-18.6,6.3C210.7,279.5,206,386,206,386
										L215.6,387z"/>
									<path class="st2" d="M206,386c0,0-4.8,22.2,13.3,24.6c1.2,0.2,2.4-0.5,2.7-1.7l0.1-0.1c0.4-1.3-0.2-2.6-1.4-3.1
										c-2.9-1.3-7.5-4.7-5.3-12.2c0,0,2.6-0.3,4.1,4.6c0.4,1.3,1.8,1.9,2.9,1.3l0,0c0.8-0.4,1.3-1.3,1.1-2.1
										c-0.4-3.4-2.1-11.7-8.8-13.9L206,386z"/>
								</g>
								<path class="st14" d="M212.1,297.2c0,0,17.1,24.1,17.2,23.6c0.1-0.5,6-33.9,6-33.9l-20.8-9L212.1,297.2z"/>
							</g>
							<g>
								<path class="st4" d="M259.6,219.3c0.7,0-42.3,0.8-50.2,55.1l24.7,3.8l5,41h69l13.7-75.8c0,0-9.7-16.4-38.1-24.5L259.6,219.3
									z"/>
								<path class="st2" d="M238.6,225.8c0,0,6.1,8.1,31,8.1c24.7,0,31-8.5,31-8.5s-14.6-8.1-31.4-10.8
									C269.2,214.6,254.1,217.3,238.6,225.8z"/>
							</g>
						</g>
					</g>
					<g>
						<g>
							<g>
								<polygon class="st24" points="323.3,398 323.4,506.5 377,506.5 381.1,398 								"/>
								<polygon class="st24" points="439.7,398 439.7,506.5 386,506.5 381.9,398 								"/>
								<rect x="355" y="398" class="st24" width="55.5" height="37.7"/>
							</g>
							<line class="st25" x1="362.7" y1="435.7" x2="401" y2="435.7"/>
						</g>
						<g>
							<g>
								<g>
									<path class="st2" d="M473.6,303.4c3.3,36.7-0.2,63.5,0.8,131.1l-32,1.3l-4.8-126.5L473.6,303.4z"/>
									<path class="st14" d="M441.6,332.1c0,0,19.8-1.8,33.4-10.8l-0.4-7.9l-33,4.5L441.6,332.1z"/>
								</g>
								<path class="st6" d="M409.8,218.9c0,0,63,15.8,74.4,95.7c0,0-30.8,13.4-61.7,7.6l7-26.7L409.8,218.9z"/>
							</g>
							<g>
								<g>
									<path class="st2" d="M221.7,252.1l46.9,55.4l-14.4,40.4c0,0-35.6-49.5-51.6-87.8L221.7,252.1z"/>
									<g>
										<g>
											<g>
												<path class="st2" d="M223.3,254.1c0,0-16.5,9.3-20.6,5.9c-7.3-5.9-13.4-27.4-13.4-27.4s30.8-11.6,30.5-11.1
													C219.4,221.9,223.3,254.1,223.3,254.1z"/>
												<path class="st2" d="M223.3,254.1c-0.3-1.7,6.1-19.5,8.3-26.2c0.5-1.6-0.6-3.4-2.3-3.7l0,0c-1.1-0.2-2.9-0.1-3.8,1.6
													l-7.7,13.2L223.3,254.1z"/>
												<path class="st2" d="M222.7,234.8l-5.3-26.4c-0.3-1.8-2.1-3-3.8-2.6l0,0c-1.5,0.3-2.5,1.6-2.4,3.2l2.3,19.6L222.7,234.8
													z"/>
												<path class="st2" d="M212.1,225l-7.2-18.8c-0.6-1.6-2.4-2.6-4.1-2l0,0c-1.4,0.5-2.2,1.9-1.9,3.4l5.3,21.8L212.1,225z"/>
												<path class="st2" d="M204.4,230.6l-9.1-18.5c-0.8-1.7-2.9-2.5-4.6-1.8l0,0c-1.6,0.7-2.3,2.5-1.6,4.2l7.3,17.5
													L204.4,230.6z"/>
												<path class="st2" d="M189.2,232.6l-7.1-11.3c-0.6-1.3-0.1-2.8,1.3-3.4l0,0c1.2-0.6,2.8-0.1,3.6,1l9.4,13L189.2,232.6z"
													/>
											</g>
										</g>
										<path class="st26" d="M221.2,232.8c0,0-10.7-1.1-11.8,13.2"/>
									</g>
								</g>
								<g>
									<g>
										<path class="st2" d="M244.7,329c0,0,8.8,30.5,26.4,26.5c17.6-4.1,44.9-41.6,44.9-41.6l-6.1-64.1l-49.3,60.7L244.7,329z"/>
										<path class="st14" d="M275.9,291.6c0,0,16.6,25.1,30.9,34l9.3-11.7l-35.9-27.7L275.9,291.6z"/>
									</g>
									<path class="st6" d="M348.8,217.5c0,0-48.9,11-74.9,67.8c0,0,15.7,23.7,41,34.3l16.9-20.7L348.8,217.5z"/>
								</g>
							</g>
							<g>
								<path class="st6" d="M348.8,217.3c-19.1,9.8-31.1,22.8-31.1,22.8l3.8,166.1h120.3l-0.4-165.2c0,0-15.2-14.8-31.6-22.1
									C395.8,212.7,362.3,210.3,348.8,217.3z"/>
								<path class="st25" d="M405.7,298.2L405.7,298.2c-9.2,0-16.7-7.5-16.7-16.7v-16.7h33.5v16.7
									C422.4,290.7,415,298.2,405.7,298.2z"/>
								<line class="st25" x1="441.6" y1="322.8" x2="443.1" y2="268.5"/>
								<line class="st25" x1="319.5" y1="313.8" x2="316.9" y2="266.7"/>
							</g>
						</g>
						<g>
							<path class="st18" d="M350.2,156.6l-5-24.8c-0.3-2-1.1-5.1-0.1-8.1c1.6-4.8,7.4-14.2,17.4-9.9l2.2,9.8
								c0,0-10.4,2.1-14.5,15.7L350.2,156.6z"/>
							<path class="st18" d="M361.7,119c-0.2,3.3-3.1,17.5-13.2,22.7C348.6,141.7,339.7,122.7,361.7,119z"/>
							<path class="st2" d="M397.2,212.7L397.2,212.7v-42.1h-38.8v42.1l-11.6,5.3c0,0,2.7,17.5,31.4,17.9c28.7,0.4,31.6-17,31.6-17
								L397.2,212.7z"/>
							<path class="st18" d="M362.5,113.9c0,0,7.1-18.8,29.1-8.8c13.3,6.1,17,14.2,18.6,19.9c0.5,1.9,0.7,4.9,0.6,6.7l-5.3,25
								l-20.8-34.6l-20.1,1.6L362.5,113.9z"/>
							<g>
								<path class="st14" d="M405.5,156.6c0,0,2.6-4.2,8-2.1s3,15.2-5.1,16.8c0,0-2.9,0.6-5.2-1.4
									C403.2,170,405.1,160.3,405.5,156.6z"/>
								<g>
									<g>
										<path class="st25" d="M412.4,159.2c0,0-4.5-1.5-7.7,5.1"/>
									</g>
								</g>
							</g>
							<g>
								<path class="st14" d="M350.2,156.6c0,0-2.6-4.2-8-2.1s-3,15.2,5.1,16.8c0,0,2.9,0.6,5.2-1.4
									C352.5,170,350.5,160.3,350.2,156.6z"/>
								<g>
									<g>
										<path class="st25" d="M343.2,159.2c0,0,4.5-1.5,7.7,5.1"/>
									</g>
								</g>
							</g>
							<path class="st2" d="M406,144.2c0,7.9-0.8,24.4-5.6,34.3c-4.6,9.2-12.1,14.2-22,14.5c-9.9,0.3-17.3-3.5-23.2-15.5
								s-5.6-33.1-5.6-33.1s0-28.3,27.9-28.3C406.9,116.1,406,144.2,406,144.2z"/>
							<path class="st18" d="M358.7,183.4c0,0,3.3,16.5,17.6,18.4c16.5,2.2,20.9-18,20.9-18s-7.3,9.1-18.9,9.2
								C365.5,193,358.7,183.4,358.7,183.4z"/>
							<g>
								<path class="st25" d="M375.8,155.9v6.5c0,0.3,0,0.6,0.1,0.8c0.4,1,1.5,1.4,2.5,1.2l2.2-0.6"/>
								<path class="st18" d="M367.6,152.8c0,1.4-1.1,2.5-2.5,2.5s-2.5-1.1-2.5-2.5s1.1-2.5,2.5-2.5
									C366.4,150.3,367.6,151.4,367.6,152.8z"/>
								<path class="st18" d="M391.4,152.8c0,1.4-1.1,2.5-2.5,2.5s-2.5-1.1-2.5-2.5s1.1-2.5,2.5-2.5
									C390.2,150.3,391.4,151.4,391.4,152.8z"/>
								<path class="st18" d="M382.3,140.2l17.1,4.4c0,0-0.8-4.8-7.8-6.5C384.7,136.3,382.3,140.2,382.3,140.2z"/>
								<path class="st18" d="M371.7,140.2l-17.1,4.4c0,0,0.8-4.8,7.8-6.5C369.4,136.3,371.7,140.2,371.7,140.2z"/>
								<path class="st25" d="M368.3,169.1c0,0,2.5,1.9,9.1,1.9c6,0,9.8-1.9,9.8-1.9"/>
								<g>
									<circle class="st27" cx="364.3" cy="153.6" r="10.8"/>
									<circle class="st27" cx="390.9" cy="153.6" r="10.8"/>
									<path class="st27" d="M375.1,153.6c0,0,2.6-2.4,4.9,0"/>
									<line class="st27" x1="353.5" y1="153.6" x2="349.9" y2="153.5"/>
									<line class="st27" x1="401.6" y1="153.6" x2="405.7" y2="153.5"/>
								</g>
							</g>
							<path class="st18" d="M358.7,119.6c0,0,5.2,14.7,28.6,14.3c15.9-0.3,19.7,11.2,19.7,11.2s-2.8-25.7-3.5-25.5
								c-0.7,0.2-24.2-6.3-24.2-6.3L358.7,119.6z"/>
						</g>
					</g>
				</g>
			</g>
		</g>
	</g>
</g>
<g id="DESIGNED_BY_FREEPIK">
</g>
</svg>
